<?xml version="1.0" encoding="UTF-8"?>
<svg xmlns="http://www.w3.org/2000/svg" width="1200" height="1450" viewBox="0 0 1200 1450" role="img" aria-labelledby="title desc">
  <title id="title">Saro saroo98 glass profile README</title>
  <desc id="desc">A dark glassmorphism GitHub profile graphic with a hero panel and selected work card.</desc>
  <defs>
    <pattern id="microGrid" width="24" height="24" patternUnits="userSpaceOnUse">
      <path d="M 24 0 L 0 0 0 24" fill="none" stroke="#9DD8D7" stroke-width="0.55" opacity="0.045"/>
      <circle cx="1" cy="1" r="0.7" fill="#9DD8D7" opacity="0.081"/>
    </pattern>
    <pattern id="fineGrid" width="12" height="12" patternUnits="userSpaceOnUse">
      <path d="M 12 0 L 0 0 0 12" fill="none" stroke="#88B9C0" stroke-width="0.55" opacity="0.028"/>
      <circle cx="1" cy="1" r="0.7" fill="#88B9C0" opacity="0.0504"/>
    </pattern>
    <radialGradient id="pageGlow" cx="74%" cy="15%" r="72%">
      <stop offset="0" stop-color="#163846" stop-opacity=".82"/>
      <stop offset=".36" stop-color="#081E29" stop-opacity=".86"/>
      <stop offset="1" stop-color="#030A10" stop-opacity="1"/>
    </radialGradient>
    <radialGradient id="aura" cx="78%" cy="22%" r="55%">
      <stop offset="0" stop-color="#75E4D1" stop-opacity=".22"/>
      <stop offset=".36" stop-color="#1C7E87" stop-opacity=".09"/>
      <stop offset="1" stop-color="#000000" stop-opacity="0"/>
    </radialGradient>
    <linearGradient id="heroGlass" x1="0" y1="0" x2="1" y2="1">
      <stop offset="0" stop-color="#2C4A59" stop-opacity=".54"/>
      <stop offset=".42" stop-color="#0C222D" stop-opacity=".78"/>
      <stop offset="1" stop-color="#061119" stop-opacity=".90"/>
    </linearGradient>
    <linearGradient id="panelGlass" x1="0" y1="0" x2="1" y2="1">
      <stop offset="0" stop-color="#243C48" stop-opacity=".72"/>
      <stop offset=".58" stop-color="#0D1B24" stop-opacity=".84"/>
      <stop offset="1" stop-color="#08131A" stop-opacity=".94"/>
    </linearGradient>
    <linearGradient id="buttonGlow" x1="0" y1="0" x2="1" y2="0">
      <stop offset="0" stop-color="#57F4D1"/>
      <stop offset=".55" stop-color="#7DE3B4"/>
      <stop offset="1" stop-color="#E4B54B"/>
    </linearGradient>
    <linearGradient id="buttonFill" x1="0" y1="0" x2="1" y2="1">
      <stop offset="0" stop-color="#1A6B6E" stop-opacity=".65"/>
      <stop offset="1" stop-color="#142B28" stop-opacity=".78"/>
    </linearGradient>
    <linearGradient id="rowGlass" x1="0" y1="0" x2="1" y2="1">
      <stop offset="0" stop-color="#1B303B" stop-opacity=".82"/>
      <stop offset="1" stop-color="#091923" stop-opacity=".86"/>
    </linearGradient>
    <linearGradient id="iconGlass" x1="0" y1="0" x2="1" y2="1">
      <stop offset="0" stop-color="#244B50" stop-opacity=".78"/>
      <stop offset="1" stop-color="#14242A" stop-opacity=".90"/>
    </linearGradient>
    <radialGradient id="coreGlow" cx="50%" cy="50%" r="50%">
      <stop offset="0" stop-color="#FFF0A3" stop-opacity="1"/>
      <stop offset=".22" stop-color="#8AF3D2" stop-opacity=".95"/>
      <stop offset=".44" stop-color="#59E8D1" stop-opacity=".25"/>
      <stop offset="1" stop-color="#59E8D1" stop-opacity="0"/>
    </radialGradient>
    <radialGradient id="planet" cx="40%" cy="50%" r="60%">
      <stop offset="0" stop-color="#7AC4E6" stop-opacity=".38"/>
      <stop offset=".44" stop-color="#244759" stop-opacity=".24"/>
      <stop offset=".76" stop-color="#0B1B26" stop-opacity=".08"/>
      <stop offset="1" stop-color="#000000" stop-opacity="0"/>
    </radialGradient>
    <filter id="shadow" x="-20%" y="-20%" width="140%" height="140%">
      <feDropShadow dx="0" dy="20" stdDeviation="20" flood-color="#000000" flood-opacity=".45"/>
      <feDropShadow dx="0" dy="0" stdDeviation="14" flood-color="#5EDCCF" flood-opacity=".10"/>
    </filter>
    <filter id="softGlow" x="-60%" y="-60%" width="220%" height="220%">
      <feGaussianBlur stdDeviation="8" result="b"/>
      <feMerge><feMergeNode in="b"/><feMergeNode in="SourceGraphic"/></feMerge>
    </filter>
    <filter id="buttonShadow" x="-50%" y="-60%" width="220%" height="240%">
      <feDropShadow dx="0" dy="0" stdDeviation="9" flood-color="#6AF2D9" flood-opacity=".45"/>
      <feDropShadow dx="0" dy="0" stdDeviation="12" flood-color="#E7B95C" flood-opacity=".32"/>
    </filter>
    <style><![CDATA[
      .label { font-family: ui-monospace, SFMono-Regular, Menlo, Consolas, monospace; letter-spacing: 3.5px; font-size: 13px; fill: #BCD4D5; }
      .tiny { font-family: ui-monospace, SFMono-Regular, Menlo, Consolas, monospace; letter-spacing: 2.4px; font-size: 10px; fill: #9DB1B6; }
      .heroTitle { font-family: Inter, Segoe UI, Helvetica, Arial, sans-serif; font-size: 96px; font-weight: 720; fill: #F7FAF9; letter-spacing: .5px; }
      .username { font-family: ui-monospace, SFMono-Regular, Menlo, Consolas, monospace; font-size: 31px; font-weight: 650; fill: #B9D96D; letter-spacing: 8px; }
      .tag { font-family: Inter, Segoe UI, Helvetica, Arial, sans-serif; font-size: 25px; line-height: 1.5; fill: #DBE7EA; }
      .btn { font-family: Inter, Segoe UI, Helvetica, Arial, sans-serif; font-size: 19px; font-weight: 650; fill: #F4F8F8; }
      .projectTitle { font-family: Inter, Segoe UI, Helvetica, Arial, sans-serif; font-size: 23px; font-weight: 700; fill: #F6FAFA; letter-spacing: .3px; }
      .projectSub { font-family: Inter, Segoe UI, Helvetica, Arial, sans-serif; font-size: 17px; fill: #AFC0C8; }
    ]]></style>

<g id="icon-globe" fill="none" stroke="currentColor" stroke-width="2.4" stroke-linecap="round" stroke-linejoin="round">
  <circle cx="0" cy="0" r="17"/>
  <path d="M-17 0h34M0-17c7 6.5 7 27.5 0 34M0-17c-7 6.5-7 27.5 0 34M-12-10c7 3 17 3 24 0M-12 10c7-3 17-3 24 0"/>
</g>
<g id="icon-wave" fill="none" stroke="currentColor" stroke-width="3.1" stroke-linecap="round">
  <path d="M-17 5v-10M-9 13v-26M-1 8V-8M7 16v-32M15 7V-7"/>
</g>
<g id="icon-bot" fill="none" stroke="currentColor" stroke-width="2.6" stroke-linecap="round" stroke-linejoin="round">
  <rect x="-16" y="-9" width="32" height="22" rx="5"/>
  <path d="M0-9v-9M-8 19h16M-14 13v7M14 13v7M-23-2h7M16-2h7"/>
  <circle cx="-7" cy="2" r="2.2" fill="currentColor" stroke="none"/>
  <circle cx="7" cy="2" r="2.2" fill="currentColor" stroke="none"/>
  <path d="M-5 9h10"/>
</g>
<g id="icon-book" fill="none" stroke="currentColor" stroke-width="2.4" stroke-linecap="round" stroke-linejoin="round">
  <path d="M-18-15h12c4 0 6 2 6 6v27c0-4-2-6-6-6h-12zM0-9c0-4 2-6 6-6h12v27H6c-4 0-6 2-6 6z"/>
  <path d="M-12-7h6M-12 1h6M6-7h6M6 1h6"/>
</g>
<g id="icon-github-lite" fill="none" stroke="currentColor" stroke-width="2.4" stroke-linecap="round" stroke-linejoin="round">
  <path d="M0 18c-11 0-20-8.4-20-19 0-4.2 1.5-8.1 4-11.2-.4-1.8-.4-4 .7-6.8 0 0 3.8 0 7 3.2 2.5-.7 5.3-.8 8.3-.8s5.8.1 8.3.8c3.2-3.2 7-3.2 7-3.2 1.1 2.8 1.1 5 .7 6.8 2.5 3.1 4 7 4 11.2C20 9.6 11 18 0 18z"/>
  <path d="M-7 17v-5c0-2.1 1-3.6 2.5-4.5M7 17v-5c0-2.1-1-3.6-2.5-4.5M-8 14c-5 .7-7-2-9-5"/>
</g>

  </defs>

  <rect width="1200" height="1450" fill="url(#pageGlow)"/>
  <rect width="1200" height="1450" fill="url(#microGrid)" opacity=".70"/>
  <rect width="1200" height="1450" fill="url(#aura)"/>
  <g opacity=".65"><circle cx="767.3" cy="36.3" r="1.0" fill="#E7B95C" opacity="0.29"/>
<circle cx="883.8" cy="981.2" r="1.5" fill="#91A35F" opacity="0.22"/>
<circle cx="38.1" cy="135.9" r="0.8" fill="#78F5D1" opacity="0.40"/>
<circle cx="673.5" cy="1038.2" r="1.5" fill="#91A35F" opacity="0.36"/>
<circle cx="707.1" cy="1173.7" r="0.6" fill="#E7B95C" opacity="0.51"/>
<circle cx="837.8" cy="493.4" r="0.8" fill="#DCEBFF" opacity="0.27"/>
<circle cx="122.7" cy="550.9" r="1.0" fill="#DCEBFF" opacity="0.55"/>
<circle cx="968.6" cy="1058.1" r="1.5" fill="#91A35F" opacity="0.23"/>
<circle cx="94.6" cy="425.1" r="1.5" fill="#DCEBFF" opacity="0.57"/>
<circle cx="692.8" cy="1021.6" r="0.6" fill="#DCEBFF" opacity="0.47"/>
<circle cx="1182.3" cy="1240.2" r="0.6" fill="#91A35F" opacity="0.35"/>
<circle cx="762.8" cy="529.0" r="1.0" fill="#DCEBFF" opacity="0.34"/>
<circle cx="842.2" cy="991.1" r="0.6" fill="#E7B95C" opacity="0.45"/>
<circle cx="641.0" cy="355.0" r="1.2" fill="#E7B95C" opacity="0.35"/>
<circle cx="821.5" cy="1222.1" r="0.6" fill="#78F5D1" opacity="0.28"/>
<circle cx="966.1" cy="581.7" r="0.6" fill="#DCEBFF" opacity="0.27"/>
<circle cx="255.2" cy="723.9" r="1.2" fill="#E7B95C" opacity="0.24"/>
<circle cx="296.0" cy="814.0" r="1.0" fill="#91A35F" opacity="0.51"/>
<circle cx="1077.4" cy="579.1" r="0.8" fill="#E7B95C" opacity="0.62"/>
<circle cx="611.4" cy="131.8" r="0.6" fill="#E7B95C" opacity="0.56"/>
<circle cx="752.9" cy="1148.5" r="1.2" fill="#91A35F" opacity="0.44"/>
<circle cx="457.9" cy="1444.4" r="1.5" fill="#78F5D1" opacity="0.29"/>
<circle cx="816.3" cy="166.1" r="1.5" fill="#DCEBFF" opacity="0.51"/>
<circle cx="133.9" cy="630.4" r="1.2" fill="#DCEBFF" opacity="0.18"/>
<circle cx="1166.3" cy="1104.8" r="1.5" fill="#DCEBFF" opacity="0.58"/>
<circle cx="1010.0" cy="736.1" r="0.8" fill="#E7B95C" opacity="0.25"/>
<circle cx="647.3" cy="1129.0" r="1.5" fill="#DCEBFF" opacity="0.58"/>
<circle cx="586.3" cy="162.2" r="1.0" fill="#DCEBFF" opacity="0.57"/>
<circle cx="287.3" cy="349.3" r="1.5" fill="#78F5D1" opacity="0.60"/>
<circle cx="878.3" cy="1183.2" r="1.5" fill="#E7B95C" opacity="0.52"/>
<circle cx="791.7" cy="1372.9" r="0.8" fill="#91A35F" opacity="0.30"/>
<circle cx="1157.2" cy="1346.9" r="0.8" fill="#91A35F" opacity="0.49"/>
<circle cx="1194.2" cy="942.3" r="1.2" fill="#91A35F" opacity="0.58"/>
<circle cx="145.2" cy="325.8" r="1.0" fill="#E7B95C" opacity="0.19"/>
<circle cx="706.1" cy="10.4" r="0.6" fill="#78F5D1" opacity="0.28"/>
<circle cx="1031.6" cy="102.7" r="0.8" fill="#91A35F" opacity="0.30"/>
<circle cx="257.1" cy="191.9" r="1.5" fill="#E7B95C" opacity="0.43"/>
<circle cx="941.5" cy="1170.9" r="0.8" fill="#91A35F" opacity="0.22"/>
<circle cx="425.2" cy="596.1" r="0.6" fill="#78F5D1" opacity="0.48"/>
<circle cx="72.7" cy="1055.9" r="0.6" fill="#E7B95C" opacity="0.29"/>
<circle cx="643.5" cy="203.3" r="0.8" fill="#E7B95C" opacity="0.30"/>
<circle cx="1049.4" cy="109.3" r="1.5" fill="#78F5D1" opacity="0.22"/>
<circle cx="1162.8" cy="1343.2" r="0.8" fill="#91A35F" opacity="0.25"/>
<circle cx="577.6" cy="1253.7" r="0.6" fill="#78F5D1" opacity="0.25"/>
<circle cx="1182.4" cy="384.5" r="1.2" fill="#91A35F" opacity="0.31"/>
<circle cx="185.8" cy="430.2" r="0.6" fill="#78F5D1" opacity="0.43"/>
<circle cx="897.6" cy="82.9" r="1.5" fill="#E7B95C" opacity="0.39"/>
<circle cx="68.3" cy="736.4" r="0.8" fill="#78F5D1" opacity="0.21"/>
<circle cx="810.3" cy="341.0" r="0.6" fill="#E7B95C" opacity="0.59"/>
<circle cx="694.7" cy="57.6" r="0.6" fill="#DCEBFF" opacity="0.36"/>
<circle cx="1121.6" cy="296.2" r="1.0" fill="#91A35F" opacity="0.29"/>
<circle cx="157.1" cy="936.0" r="1.2" fill="#78F5D1" opacity="0.32"/>
<circle cx="11.2" cy="900.7" r="1.5" fill="#78F5D1" opacity="0.62"/>
<circle cx="645.2" cy="733.5" r="0.8" fill="#78F5D1" opacity="0.59"/>
<circle cx="1055.1" cy="535.8" r="0.8" fill="#DCEBFF" opacity="0.37"/>
<circle cx="734.0" cy="1431.5" r="1.5" fill="#DCEBFF" opacity="0.18"/>
<circle cx="1118.1" cy="150.2" r="0.8" fill="#78F5D1" opacity="0.30"/>
<circle cx="890.9" cy="225.4" r="1.0" fill="#DCEBFF" opacity="0.45"/>
<circle cx="244.3" cy="919.6" r="1.0" fill="#DCEBFF" opacity="0.40"/>
<circle cx="1086.4" cy="1226.9" r="0.6" fill="#DCEBFF" opacity="0.46"/>
<circle cx="52.9" cy="483.7" r="0.8" fill="#DCEBFF" opacity="0.46"/>
<circle cx="193.9" cy="640.7" r="1.2" fill="#78F5D1" opacity="0.43"/>
<circle cx="90.3" cy="1280.5" r="0.8" fill="#DCEBFF" opacity="0.42"/>
<circle cx="699.0" cy="214.7" r="0.8" fill="#DCEBFF" opacity="0.20"/>
<circle cx="1078.8" cy="1154.4" r="0.6" fill="#E7B95C" opacity="0.58"/>
<circle cx="818.5" cy="967.1" r="1.0" fill="#91A35F" opacity="0.52"/>
<circle cx="1168.6" cy="1086.7" r="0.8" fill="#E7B95C" opacity="0.56"/>
<circle cx="1057.7" cy="35.9" r="1.0" fill="#91A35F" opacity="0.52"/>
<circle cx="962.7" cy="1252.9" r="0.8" fill="#78F5D1" opacity="0.30"/>
<circle cx="459.1" cy="56.2" r="1.2" fill="#91A35F" opacity="0.28"/>
<circle cx="419.6" cy="1189.8" r="0.8" fill="#E7B95C" opacity="0.28"/>
<circle cx="478.2" cy="404.0" r="0.6" fill="#DCEBFF" opacity="0.61"/>
<circle cx="421.4" cy="738.6" r="1.5" fill="#78F5D1" opacity="0.33"/>
<circle cx="138.4" cy="1407.1" r="0.8" fill="#DCEBFF" opacity="0.44"/>
<circle cx="45.9" cy="865.0" r="1.0" fill="#DCEBFF" opacity="0.50"/>
<circle cx="523.7" cy="1427.1" r="0.6" fill="#E7B95C" opacity="0.35"/>
<circle cx="305.7" cy="1027.7" r="0.6" fill="#E7B95C" opacity="0.41"/>
<circle cx="437.1" cy="101.5" r="1.0" fill="#78F5D1" opacity="0.45"/>
<circle cx="863.7" cy="435.5" r="1.0" fill="#DCEBFF" opacity="0.47"/>
<circle cx="482.9" cy="428.7" r="0.8" fill="#91A35F" opacity="0.26"/>
<circle cx="812.8" cy="1309.1" r="1.5" fill="#91A35F" opacity="0.43"/>
<circle cx="657.5" cy="0.6" r="1.0" fill="#DCEBFF" opacity="0.27"/>
<circle cx="558.0" cy="641.1" r="0.8" fill="#E7B95C" opacity="0.40"/>
<circle cx="790.6" cy="411.5" r="1.5" fill="#E7B95C" opacity="0.33"/>
<circle cx="807.4" cy="325.7" r="0.8" fill="#78F5D1" opacity="0.24"/>
<circle cx="293.8" cy="688.9" r="0.6" fill="#E7B95C" opacity="0.38"/>
<circle cx="862.0" cy="556.8" r="1.2" fill="#78F5D1" opacity="0.29"/>
<circle cx="1071.2" cy="1247.6" r="0.6" fill="#E7B95C" opacity="0.52"/>
<circle cx="211.1" cy="1389.1" r="1.5" fill="#E7B95C" opacity="0.38"/>
<circle cx="1101.0" cy="176.0" r="0.8" fill="#DCEBFF" opacity="0.53"/>
<circle cx="1140.0" cy="1292.6" r="1.5" fill="#91A35F" opacity="0.54"/>
<circle cx="996.7" cy="794.4" r="0.8" fill="#91A35F" opacity="0.51"/>
<circle cx="540.1" cy="1090.1" r="1.0" fill="#91A35F" opacity="0.52"/>
<circle cx="752.1" cy="398.2" r="0.6" fill="#E7B95C" opacity="0.49"/>
<circle cx="326.1" cy="463.6" r="1.5" fill="#E7B95C" opacity="0.22"/></g>

  <!-- Hero panel -->
  <g filter="url(#shadow)">
    <rect x="40" y="42" width="1120" height="610" rx="38" fill="url(#heroGlass)" stroke="#6F8B98" stroke-width="1.4" opacity=".96"/>
    <rect x="51" y="53" width="1098" height="588" rx="30" fill="none" stroke="#B9E8EA" stroke-width=".9" opacity=".34"/>
    <path d="M60 95 C170 50 332 43 540 75 C703 100 852 82 1018 55" fill="none" stroke="#FFFFFF" stroke-opacity=".13" stroke-width="22" filter="url(#softGlow)"/>
    <rect x="48" y="50" width="1110" height="600" rx="34" fill="url(#fineGrid)" opacity=".55"/>
  </g>

  <!-- Planet curve -->
  <g opacity=".9">
    <circle cx="1285" cy="445" r="385" fill="url(#planet)"/>
    <path d="M1118 300 C1074 388 1066 498 1100 612" stroke="#8FD8F0" stroke-width="2.2" opacity=".22" fill="none"/>
    <path d="M1090 345 C1160 334 1222 320 1290 284" stroke="#B4E7FF" stroke-width="1" opacity=".16" fill="none"/>
  </g>

  <!-- Left hero content -->
  <text x="122" y="195" class="heroTitle">Saro</text>
  <text x="126" y="258" class="username">saroo98</text>
  <rect x="126" y="319" width="2.5" height="126" fill="url(#buttonGlow)" opacity=".90"/>
  <text x="161" y="334" class="tag">
    <tspan x="161" dy="0">Building practical software.</tspan>
    <tspan x="161" dy="37">Driven by defensive research.</tspan>
    <tspan x="161" dy="37">Automating the complex.</tspan>
    <tspan x="161" dy="37">Engineering clean systems.</tspan>
  </text>

  <!-- Buttons -->
  <g transform="translate(126 492)" filter="url(#buttonShadow)">
    <rect x="0" y="0" width="235" height="62" rx="20" fill="url(#buttonFill)" stroke="url(#buttonGlow)" stroke-width="1.6"/>
    <text x="38" y="39" class="btn">Explore Work</text>
    <circle cx="192" cy="31" r="21" fill="#FFFFFF" opacity=".09"/>
    <path d="M185 31h15M195 24l7 7-7 7" fill="none" stroke="#D8F9EF" stroke-width="2.2" stroke-linecap="round" stroke-linejoin="round"/>
  </g>
  <g transform="translate(383 492)">
    <rect x="0" y="0" width="268" height="62" rx="20" fill="#08141B" fill-opacity=".55" stroke="#6A828D" stroke-width="1"/>
    <g transform="translate(37 31) scale(.7)" color="#D8E3EA"><use href="#icon-github-lite"/></g>
    <text x="73" y="39" class="btn" fill="#DDE8EA">View Repositories</text>
  </g>

  <!-- Radar visual -->
  <g>
    <circle cx="825" cy="300" r="90" fill="none" stroke="#94DCD4" stroke-width="1.1" opacity="0.35" stroke-dasharray=""/><circle cx="825" cy="300" r="130" fill="none" stroke="#94DCD4" stroke-width="1.1" opacity="0.25" stroke-dasharray="4 11"/><circle cx="825" cy="300" r="176" fill="none" stroke="#94DCD4" stroke-width="1.1" opacity="0.3" stroke-dasharray=""/><circle cx="825" cy="300" r="222" fill="none" stroke="#94DCD4" stroke-width="1.1" opacity="0.2" stroke-dasharray="2 8"/><circle cx="825" cy="300" r="268" fill="none" stroke="#94DCD4" stroke-width="1.1" opacity="0.16" stroke-dasharray=""/>
    <path d="M689.1,236.6 A150,150 0 0 1 931.1,193.9" fill="none" stroke="#B9832F" stroke-width="1.4" opacity="0.7" stroke-linecap="round"/><path d="M1023.0,353.1 A205,205 0 0 1 853.5,503.0" fill="none" stroke="#75E4D1" stroke-width="1.4" opacity="0.55" stroke-linecap="round"/><path d="M702.5,512.2 A245,245 0 0 1 580.1,308.6" fill="none" stroke="#E3C063" stroke-width="1.4" opacity="0.45" stroke-linecap="round"/><path d="M922.1,248.4 A110,110 0 0 1 909.3,370.7" fill="none" stroke="#91A35F" stroke-width="1.4" opacity="0.48" stroke-linecap="round"/>
    <circle cx="825" cy="300" r="36" fill="url(#coreGlow)" filter="url(#softGlow)"/>
    <circle cx="825" cy="300" r="9" fill="#BEEB87" opacity=".92"/>
    <path d="M825 300 L905 214" stroke="#94DCD4" stroke-width="1.3" opacity=".55"/>
    <path d="M700 420 L770 420 L806 386 L906 386 L960 334 L1032 334" stroke="#E1AA42" stroke-width="2" fill="none" opacity=".86"/>
    <path d="M675 185 L731 185 L785 129 L893 129 L960 185" stroke="#9EEBB5" stroke-width="1.5" fill="none" opacity=".58"/>
    <path d="M565 340 H685 M995 340 H1105 M825 55 V110 M825 490 V545" stroke="#9DD8D7" opacity=".28"/>
    <circle cx="905" cy="214" r="8" fill="#9CE893" opacity=".94"/>
    <circle cx="960" cy="334" r="5" fill="#E7B95C"/>
    <circle cx="770" cy="420" r="6" fill="#E7B95C"/>
    <circle cx="1032" cy="334" r="5" fill="#E7B95C"/>
    <circle cx="785" cy="129" r="4.7" fill="#B9D96D"/>
  </g>

  <!-- Floating HUD cards -->
  <g>
    <rect x="655" y="132" width="156" height="88" rx="15" fill="url(#panelGlass)" stroke="#8EACB7" stroke-width="1" opacity=".9"/>
    <text x="677" y="163" class="label" font-size="12">TRACE</text>
    <path d="M681 193 L699 176 L718 200 L740 157 L763 192 L789 162" fill="none" stroke="#E7B95C" stroke-width="2" stroke-linecap="round" stroke-linejoin="round"/>
    <circle cx="699" cy="176" r="3" fill="#E7B95C"/><circle cx="740" cy="157" r="3" fill="#E7B95C"/><circle cx="789" cy="162" r="3" fill="#E7B95C"/>

    <rect x="990" y="141" width="146" height="95" rx="15" fill="url(#panelGlass)" stroke="#8EACB7" stroke-width="1" opacity=".85"/>
    <text x="1014" y="176" class="label" font-size="12">ANALYZE</text>
    <rect x="1015" y="202" width="43" height="4" rx="2" fill="#6EE6D2" opacity=".72"/>
    <rect x="1015" y="220" width="79" height="4" rx="2" fill="#6EE6D2" opacity=".25"/>
    <rect x="1015" y="238" width="58" height="4" rx="2" fill="#91DFA7" opacity=".65"/>

    <rect x="982" y="405" width="146" height="105" rx="16" fill="url(#panelGlass)" stroke="#8EACB7" stroke-width="1" opacity=".87"/>
    <text x="1007" y="443" class="label" font-size="12">NOISE</text>
    <rect x="1007" y="468" width="28" height="4" rx="2" fill="#E7B95C"/>
    <rect x="1045" y="468" width="28" height="4" rx="2" fill="#E7B95C"/>
    <rect x="1083" y="468" width="28" height="4" rx="2" fill="#E7B95C"/>
    <text x="1007" y="492" class="tiny">FILTERED</text>
  </g>

  <!-- Status rail -->
  <g transform="translate(482 606)">
    <circle cx="0" cy="0" r="10" fill="#173033" stroke="#5ADFC8" opacity=".55"/>
    <circle cx="0" cy="0" r="4" fill="#69E6D2"/>
    <text x="22" y="5" class="label" font-size="11">READ</text>
    <path d="M74 0 H154" stroke="#6EA7A9" stroke-width="1.5" opacity=".55"/>
    <circle cx="74" cy="0" r="5" fill="#B9D96D"/><circle cx="154" cy="0" r="5" fill="#E7B95C"/>
    <text x="173" y="5" class="label" font-size="11">VERIFY</text>
    <path d="M263 0 H346" stroke="#6EA7A9" stroke-width="1.5" opacity=".55"/>
    <circle cx="263" cy="0" r="5" fill="#91D96E"/><circle cx="346" cy="0" r="5" fill="#E7B95C"/>
    <text x="365" y="5" class="label" font-size="11">PATCH</text>
    <path d="M456 0 H579" stroke="#6EA7A9" stroke-width="1.5" opacity=".55"/>
    <circle cx="456" cy="0" r="5" fill="#5ADFC8"/><circle cx="579" cy="0" r="5" fill="#E7B95C"/>
    <text x="599" y="5" class="label" font-size="11">SHIP</text>
    <path d="M662 0 H706" stroke="#6EA7A9" stroke-width="1.5" opacity=".55"/>
  </g>

  <!-- Selected Work card -->
  <g filter="url(#shadow)">
    <rect x="40" y="680" width="725" height="690" rx="30" fill="url(#panelGlass)" stroke="#73919E" stroke-width="1.3" opacity=".98"/>
    <rect x="52" y="692" width="701" height="666" rx="24" fill="none" stroke="#C7EEF2" stroke-width=".9" opacity=".22"/>
    <rect x="40" y="680" width="725" height="690" rx="30" fill="url(#fineGrid)" opacity=".28"/>
  </g>
  <circle cx="78" cy="717" r="5" fill="#61F1D5" filter="url(#softGlow)"/>
  <text x="100" y="723" class="label">SELECTED WORK</text>

  <rect x="86" y="752" width="638" height="484" rx="19" fill="#07141C" fill-opacity=".43" stroke="#405A65" stroke-width="1"/>

    <g>
      <rect x="86" y="782" width="618" height="105" fill="url(#rowGlass)" stroke="#36505A" stroke-width="1" opacity="0.97"/>
      <rect x="104" y="804" width="62" height="62" rx="19" fill="url(#iconGlass)" stroke="#314A51" opacity=".96"/>
      <g transform="translate(135 835)" color="#59E8D1"><use href="#icon-globe"/></g>
      <text x="198" y="830" class="projectTitle">iran-network-field-guide</text>
      <text x="198" y="855" class="projectSub">Defensive research &amp; notes</text>
      <path d="M654 826 l12 12 -12 12" fill="none" stroke="#C6D4DC" stroke-width="2.6" stroke-linecap="round" stroke-linejoin="round" opacity=".85"/>
    </g>
    <g>
      <rect x="86" y="887" width="618" height="105" fill="url(#rowGlass)" stroke="#36505A" stroke-width="1" opacity="0.88"/>
      <rect x="104" y="909" width="62" height="62" rx="19" fill="url(#iconGlass)" stroke="#314A51" opacity=".96"/>
      <g transform="translate(135 940)" color="#A9D56F"><use href="#icon-wave"/></g>
      <text x="198" y="935" class="projectTitle">local-dictation</text>
      <text x="198" y="960" class="projectSub">Offline voice tooling</text>
      <path d="M654 931 l12 12 -12 12" fill="none" stroke="#C6D4DC" stroke-width="2.6" stroke-linecap="round" stroke-linejoin="round" opacity=".85"/>
    </g>
    <g>
      <rect x="86" y="992" width="618" height="105" fill="url(#rowGlass)" stroke="#36505A" stroke-width="1" opacity="0.88"/>
      <rect x="104" y="1014" width="62" height="62" rx="19" fill="url(#iconGlass)" stroke="#314A51" opacity=".96"/>
      <g transform="translate(135 1045)" color="#B7D86F"><use href="#icon-bot"/></g>
      <text x="198" y="1040" class="projectTitle">maintainer-notes</text>
      <text x="198" y="1065" class="projectSub">Review automation</text>
      <path d="M654 1036 l12 12 -12 12" fill="none" stroke="#C6D4DC" stroke-width="2.6" stroke-linecap="round" stroke-linejoin="round" opacity=".85"/>
    </g>
    <g>
      <rect x="86" y="1097" width="618" height="105" fill="url(#rowGlass)" stroke="#36505A" stroke-width="1" opacity="0.88"/>
      <rect x="104" y="1119" width="62" height="62" rx="19" fill="url(#iconGlass)" stroke="#314A51" opacity=".96"/>
      <g transform="translate(135 1150)" color="#E4B54B"><use href="#icon-book"/></g>
      <text x="198" y="1145" class="projectTitle">Sertraline</text>
      <text x="198" y="1170" class="projectSub">Publishing space</text>
      <path d="M654 1141 l12 12 -12 12" fill="none" stroke="#C6D4DC" stroke-width="2.6" stroke-linecap="round" stroke-linejoin="round" opacity=".85"/>
    </g>
  <rect x="86" y="1252" width="638" height="62" rx="16" fill="#0B1B25" fill-opacity=".74" stroke="#6F8B98" stroke-width="1"/>
  <text x="116" y="1292" class="btn" font-weight="600">View more repositories</text>
  <g transform="translate(675 1283) scale(.55)" color="#D8E3EA"><use href="#icon-github-lite"/></g>

  <!-- Ambient card reflection -->
  <path d="M60 700 C220 650 416 650 700 690" fill="none" stroke="#FFFFFF" stroke-width="17" stroke-opacity=".07" filter="url(#softGlow)"/>

  <!-- empty space constellation anchors -->
  <g opacity=".45">
    <path d="M820 825 C890 760 952 800 1010 740 C1065 688 1115 740 1150 710" fill="none" stroke="#6CE8D2" stroke-width="1" opacity=".25"/>
    <circle cx="820" cy="825" r="3" fill="#74E4D4"/><circle cx="1010" cy="740" r="3" fill="#E4B54B"/><circle cx="1150" cy="710" r="2.5" fill="#91A35F"/>
    <path d="M855 1040 C930 985 1000 1018 1070 965" fill="none" stroke="#E4B54B" stroke-width="1" opacity=".22"/>
    <circle cx="855" cy="1040" r="2.5" fill="#E4B54B"/><circle cx="1070" cy="965" r="3" fill="#71E6D2"/>
  </g>
</svg>
