<svg xmlns="http://www.w3.org/2000/svg" width="540" height="250" viewBox="0 0 540 250" role="img" aria-labelledby="title desc">
  <title id="title">local-dictation</title>
  <desc id="desc">Offline Windows dictation bubble with faster-whisper and privacy-first voice typing.</desc>
  <defs>
    <linearGradient id="bg" x1="0" y1="0" x2="1" y2="1"><stop offset="0%" stop-color="#111827"/><stop offset="100%" stop-color="#020617"/></linearGradient>
    <linearGradient id="route" x1="0" y1="0" x2="1" y2="0"><stop offset="0%" stop-color="#a3e635" stop-opacity="0"/><stop offset="48%" stop-color="#a3e635"/><stop offset="100%" stop-color="#a3e635" stop-opacity="0"/></linearGradient>
    <pattern id="grid" width="26" height="26" patternUnits="userSpaceOnUse"><path d="M26 0H0V26" stroke="#a3e635" stroke-opacity=".045" fill="none"/></pattern>
    <style>.sans{font-family:ui-sans-serif,system-ui,-apple-system,BlinkMacSystemFont,"Segoe UI",Helvetica,Arial,sans-serif}.mono{font-family:ui-monospace,SFMono-Regular,Menlo,Monaco,Consolas,monospace}.dash{stroke-dasharray:10 14;animation:dash 12s linear infinite}.dot{animation:dot 2.8s ease-in-out infinite}@keyframes dash{to{stroke-dashoffset:-380}}@keyframes dot{0%,100%{opacity:.35}50%{opacity:1}}</style>
  </defs>
  <rect width="540" height="250" rx="24" fill="url(#bg)"/>
  <rect width="540" height="250" rx="24" fill="url(#grid)"/>
  <rect x="1" y="1" width="538" height="248" rx="23" fill="none" stroke="#a3e635" stroke-opacity=".30"/>
  <text x="32" y="48" class="mono" fill="#a3e635" font-size="13" letter-spacing="2.2">LOCAL TOOL</text>
  <text x="32" y="96" class="sans" fill="#f8fafc" font-size="28" font-weight="800">local-dictation</text>
  <text x="32" y="132" class="mono" fill="#cbd5e1" font-size="15">Offline Windows dictation bubble with</text>
  <text x="32" y="156" class="mono" fill="#cbd5e1" font-size="15">faster-whisper and privacy-first voice typing.</text>
  <path class="dash" d="M32 208H206C252 208 246 184 294 184H500" stroke="url(#route)" stroke-width="2.3" stroke-linecap="round" fill="none"/>
  <circle class="dot" cx="500" cy="184" r="5" fill="#a3e635"/>
  <rect x="444" y="43" width="54" height="42" rx="12" fill="#020617" stroke="#a3e635" stroke-opacity=".55"/>
  <path d="M466 55v18m10-14v10m-20-6v6" stroke="#a3e635" stroke-width="2.2" stroke-linecap="round"/>
</svg>
